<svg viewBox="0 0 2000 2000" class="innova-hero-svg" data-v-2675be80=""><path d="M1682.4630264294012,1000L1680.494572102556,975.0579281455405L1674.6014108466873,950.331227958437L1664.8200686748899,926.0336381878966L1651.2111589332285,902.3756434960135L1633.858989128903,879.5628767046398L1612.8710141604965,857.7945559602425L1588.3771395913388,837.2619680735754L1560.5288796050065,818.1470089665637L1529.4983752486194,800.6207917574918L1495.4772794983742,784.842332540214L1458.675516566404,770.9573233669497L1419.3199237025838,759.0970013310933L1377.652784523726,749.3771219706094L1333.930263620433,741.897044478705L1288.4207528438978,736.738935421653L1241.4031402567684,733.9670968293783L1193.165013239902,733.627423648484L1144.0008076770562,735.7469946358956L1094.2099154893697,740.3337998305742L1044.0947630586074,747.3766067773249L993.9588732607552,756.8449666973314L944.104923928505,768.6893608114692L894.8328155718227,782.8414860316027L846.4377611101443,799.2146782488297L799.2084102083326,817.7044704728936L753.4250205625292,838.1892821205198L709.357688153121,860.5312348189393L667.2646480725515,884.577089190816L627.3906570484029,910.1592962245172L589.9654682204759,937.0971560151543L555.2024080983067,965.1980758928268L523.2970649270512,994.2589192404141L494.4260969297116,1024.067435649075L468.7461680774758,1054.4037624699467L446.3930181730668,1085.0419872995576L427.4806731203821,1115.751760487812L412.10080030355425,1146.2999463843248L400.32221301637117,1176.4523017439944L392.19052687544365,1205.9751694981433L387.7279701244662,1234.637175964906L386.9333486993596,1262.2109195228077L389.7821658820774,1288.474638805068L396.22689533146536,1313.2138485889711L406.1974052498707,1336.222931753921L419.6015304311519,1357.3066759622714L436.3257879462542,1376.2817440768322L456.2362312632539,1392.9780677657102L479.17943667625093,1407.24015425589L504.9836150379227,1418.9282967782833L533.4598409598946,1427.9196798949001L564.4033908689271,1434.1093716089554L597.5951805904676,1437.4111949262465L632.8032924792197,1437.7584723558325L669.7845815333633,1435.104637704276L708.2863494188418,1429.4237104245638L748.0480748960772,1420.7106287221036L788.8031887864705,1408.9814385894276L830.2808813424259,1394.2733369317857L872.2079296941079,1376.6445679508574L914.3105329399915,1356.1741729664739L956.3161424270347,1332.9615948695043L997.9552748300529,1307.1261394059943L1038.963295788082,1278.8062964862613L1079.0821620870313,1248.1589256861253L1118.0621106910532,1215.3583110540428L1155.6632833175772,1180.5950912510707L1191.6572757200502,1144.0750719239945L1225.828601384783,1106.017928039555L1257.9760599601304,1066.6558046837542L1287.914001413232,1026.2318255492912L1315.473477646971,984.998518991323L1340.5032741025734,943.2161721222737L1362.8708147158095,901.1511239362842L1382.4629344812504,859.0740088993895L1399.1865148033403,817.2579628094852L1412.9689777687395,775.9768030179905L1423.7586364548888,735.503195310755L1431.5248993882815,696.106819867655L1436.258328275566,658.0525487575494L1437.9705491444524,621.5986473774857L1436.6940180424012,586.9950121124041L1432.481643442352,554.4814562749639L1425.406268489339,524.2860560858378L1415.5600171830717,496.6235680748349L1403.0535095227374,471.69392882502643L1388.0149515351186,449.6808474486975L1370.5891069594204,430.75050057896055L1350.9361581661701,415.05033898829413L1329.2304646377117,402.70801420965336L1305.6592280290083,393.8304327420026L1280.4210734550409,388.50294457557504L1253.7245572107622,386.7886718785253L1225.7866116175276,388.72798275193816L1196.8309381029276,394.3381139907616L1167.0863599562133,403.6129457906345L1136.7851464567493,416.5229303216065L1106.1613202465653,433.0151750562553L1075.4489599089354,453.0136806987409L1044.8805097224213,476.4197325199642L1014.6851084841359,503.1124428692771L985.0869491375795,532.9494416121827L956.3036807005395,565.7677102431136L928.5448636689821,601.3845544494834L902.0104896758503,639.598708964411L876.8895757120456,680.1915676472368L853.3588426740387,722.9285308792757L831.5814873922216,767.5604615630639L811.7060566207216,813.8252402720394L793.8654307375887,861.449409419303L778.1759241191878,910.149895703436L764.7365083198299,959.6357995504957L753.6281633129229,1009.6102398079959L744.913361139364,1059.7722415620933L738.6356853688934,1109.8186546459756L734.8195888172304,1159.4460901877108L733.4702909827361,1208.3528624111434L734.5738156779373,1256.2409228546776L738.0971683403478,1302.8177742104513L743.9886515205978,1347.7983511102343L752.1783160707369,1390.9068553935417L762.57854459853,1431.878533686629L775.08476282129,1470.4613854962709L789.5762735517235,1506.4177904769717L805.9172071847141,1539.526044061521L823.9575817339326,1569.581791249028L843.5344646963124,1596.3993490176292L864.4732283061419,1619.8129085664964L886.5888890838048,1639.6776093885876L909.6875219915455,1655.8704780264002L933.5677389842105,1668.2912252620695L958.02222129038,1676.8628964344682L982.8392943817313,1681.532370553106L1007.8045342885398,1682.2707048850205L1032.7023936990295,1679.0733227197252L1057.3178361412843,1671.9600430616338L1081.437966489645,1660.9749520521939L1104.8536460633677,1646.1861169781116L1127.3610806935246,1627.6851447704164L1148.7633703240476,1605.586587934603L1168.8720089830733,1580.0272018677197L1187.508324309459,1551.165058507173L1204.5048462441152,1519.1785222115266L1219.7065949936891,1484.2650946892104L1232.9722789416244,1446.6401366606694L1244.1753938148502,1406.5354747572114L1253.2052151088712,1364.1979029200872L1259.9676765250051,1319.8875882611148L1264.386127975768,1273.876391976708L1266.40196756234,1226.4461164661973L1265.9751428157376,1177.886690289189L1263.0845174146657,1128.494303002093L1257.7281005415396,1078.569502238111L1249.9231370073103,1028.415265635871L1239.706057258738,978.3350603778508L1227.132287371775,928.6309031697228L1212.2759201248718,879.6014334754364L1195.2292492294125,831.5400127203199L1176.1021697642286,784.7328619864688L1155.021448810518,739.4572504525732L1132.1298712058576,695.9797464759936L1107.585266224887,654.5545427807215L1081.5594218434958,615.421866703949L1054.2368940469798,578.8064858697792L1025.8137193950145,544.9163190051195L996.4960397522058,513.9411608945666L966.4986487274642,486.05152969299456L936.0434699340659,461.397643981874L905.3579776810324,440.10853607386525L874.6735711318117,422.291307145887L844.2239133151354,408.0305288199837L814.2432466429381,397.3877948204721L784.9646967793169,390.40142532178515L756.6185768113356,387.0863255710218L729.4307036961741,387.43399932951104L703.6207388995247,391.41271663575174L679.4005649974214,398.9678343549616L656.9727097888672,410.0222669552452L636.5288291611748,424.4771039439662L618.2482595657573,442.2123694171612L602.2966505018909,463.08791822637374L588.8246868728039,486.944462357509L577.9669104758341,513.6047202514264L569.8406492205356,542.8746809817777L564.5450619400125,574.5449744475297L562.1603058763205,608.3923380408667L562.746833085942,644.1811696203506L566.3448211317626,681.6651560585174L572.973742509675,720.5889661463632L582.6320763072251,760.6899962275514L595.2971646150927,801.7001566053261L610.9252152163842,843.3476865173438L629.4514510705391,885.3589853093825L650.790406095053,927.4604473591799L674.8363657361836,969.3802883070541L701.4639498163043,1010.8503502401853L730.5288341574903,1051.607873651789L761.8686065151603,1091.397224253664L795.3037514187529,1129.97156305882L830.6387576150006,1167.0944485676155L867.66334094965,1202.5413603832465L906.1537747113888,1236.1011341469214L945.8743187029098,1267.5772983157058L986.5787376038303,1296.7893040024628L1028.0118985533927,1323.5736398526L1069.9114373119585,1347.7848247412473L1112.0094818633643,1369.296271931424L1154.0344218985824,1388.00101923273L1195.712712277979,1403.8123206349103L1236.7706983070589,1416.6640958548L1276.9364504810162,1426.5112352220335L1315.9415962579099,1433.3297583316398L1353.5231364095512,1437.1168259033636L1389.4252335736019,1437.890605301247L1423.400960789366,1435.6899911757218L1455.2139980423517,1430.5741836872749L1484.6402651674543,1422.6221277487352L1511.4694798653313,1411.9318176757804L1535.5066300685107,1398.6194725557716L1556.573350449985,1382.81858852719L1574.5091934935745,1364.6788749997581L1589.1727862381044,1344.3650826330882L1600.4428645618323,1322.0557316239212L1608.2191776844022,1297.941749523824L1612.4232564254994,1272.2250284160386L1612.9990396665216,1245.1169118177763L1609.9133544078147,1216.8366221391307L1603.1562457929372,1187.6096399187995L1592.7411544764363,1157.6660463672306L1578.7049397358815,1127.2388409777152L1561.1077477654667,1096.5622461138514L1540.032725630374,1065.8700105465864L1515.5855824011205,1035.3937238955489L1487.894000018306,1005.3611538277855L1457.1068974534837,975.9946176829557L1423.3935527243495,947.5093999290815L1386.942588285404,920.1122265089266L1347.9608262420502,893.9998067163821L1306.6720207204278,869.357452747985L1263.315475561199,846.3577865103471L1218.144556287164,825.1595426337353L1171.4251060166982,805.9064759498577L1123.433775652699,788.7263809429178L1074.456279265354,773.7302298823749L1024.7855861026464,761.0114354992983L974.7200611015912,750.6452431816083L924.5615661325892,742.6882567430328L874.6135344865977,737.1781008727346L825.1790313081617,734.1332224038913L776.5588127852188,733.5528315567749L729.049396928318,735.4169833219496L682.9411587073146,739.6867981589644L638.5164621629547,746.3048202022819L596.0478418751654,755.1955101959783L555.7962458508503,766.2658694287227L518.0093514935941,779.4061900173404L482.919965838645,794.4909259972751L450.7445206821204,811.3796788276468L421.6816726071603,829.9182901133644L395.9110172160613,849.9400335924043L373.59192612090817,871.2668977381412L354.862514430916,893.7109496894731L339.83874560815775,917.0757706497482L328.6136796504244,941.1579523931176L321.2568696067485,965.7486440875591L317.8139104441161,990.6351382902518L318.3061432697451,1015.6024846957249L322.7305168788373,1040.4351200222802L331.0596075499574,1064.9185023088132L343.24179695619057,1088.8407378631307L359.20160700712415,1111.9941891545343L378.8401893916082,1134.177052077303L402.03596656120817,1155.1948912268374L428.6454198862557,1174.8621221252943L458.50401973725025,1193.003429706284L491.42729130060263,1209.455112816158L527.2120090358271,1224.0663450094492L565.6375118272849,1236.7003425045407L606.467130083196,1247.2354308184604L649.4497152933918,1255.566002312432L694.3212618800329,1261.603357647391L740.8066105668506,1265.2764249658017L788.6212219565801,1266.5323514771158L837.4730085466106,1265.336963023124L887.0642130325583,1261.6750881299517L937.0933204511676,1255.5507440091576L987.2569914994534,1246.9871829445858L1037.2520042377753,1236.0267984875684L1086.7771913415465,1222.7308918738715L1135.535360109582,1207.1793000645573L1183.2351825663957,1189.469887792802L1229.5930432102775,1169.7179069628023L1274.3348322570089,1148.0552276885364L1317.1976726086195,1124.6294461727455L1357.9315692351322,1099.6028755036527L1396.3009701914493,1073.1514262825424L1432.0862290978,1045.463384783559L1465.0849595864338,1016.7380970823557L1495.113272954728,987.1845682674245L1522.0068910605867,957.0199864623382L1545.6221273446158,926.468181934318L1565.8367297590803,895.7580320406923L1582.5505803200742,865.1218231666243L1595.6862469703378,834.7935811319381L1605.1893844389474,805.0073817897678L1611.0289818040383,775.9956537032979L1613.197455498795,747.9874848677565L1611.7105875421003,721.2069454424736L1606.6073098164252,695.8714383722033L1597.9493362497315,672.1900896084169L1585.8206457782148,650.3621893910399L1570.326819965866,630.5756957208437L1551.5942401281836,613.005810744452L1529.7691497444125,597.8136402905386L1505.0165888390825,585.1449462405268L1477.519207863291,575.129000793648L1447.4759694033853,567.8775509988347L1415.1007467841562,563.4839011793458L1380.6208293102752,562.0221200752421L1344.2753444990237,563.5463786793678L1306.3136081953494,568.0904238501653L1266.9934139232291,575.667191855542L1226.5792732122545,586.2685650424713L1185.3406189427944,599.865273843671L1143.5499839748838,616.4069453322905L1101.4811674638945,635.8222985249112L1059.407401319201,658.0194856193006L1017.599529230085,682.8865773432569L976.3242105664901,710.2921895914506L935.8421612618517,740.0862475453287L896.4064435024025,772.1008825137303L858.2608156843322,806.1514558054012L821.6381536594761,842.0377030555287L786.7589537748472,879.5449915829909L753.8299276250925,918.4456825589724L723.0426977838968,958.5005890265151L694.5726030649532,999.4605201296985L668.5776210905046,1041.067901295109L645.1974151209408,1083.0584595613975L624.552511228175,1125.1629627789914L606.7436109846836,1167.1090010046548L591.851043895433,1208.6227980973256L579.9343628278671,1249.4310412851307L571.0320847026251,1289.2627163199331L565.1615777013399,1327.8509357667008L562.3190952347729,1364.9347479909977L562.4799559016733,1400.2609145086692L565.5988676629945,1433.5856435470637L571.6103934644616,1464.6762679357053L580.4295545697098,1493.3128557942161L591.952566922991,1519.289742914488L606.0577049512754,1542.4169762397296L622.6062863466068,1562.521658421511L641.4437705467934,1579.4491840836586L662.4009628616153,1593.064359134461L685.2953154778002,1603.2523952411493L709.9323159240621,1609.9197724080516L736.1069529919514,1612.9949634765337L763.6052495929418,1612.4290152848075L792.2058515907063,1608.1959821828646L821.6816612828958,1600.293208585597L851.801503921196,1588.7414582589104L882.3318154540137,1573.584889062518L913.0383395542569,1554.8908729120792L943.6878219557732,1532.7496617653987L974.0496901665626,1507.273901475466L1003.8977067544387,1478.597996380046L1033.0115846102194,1446.8773285064601L1061.1785528834516,1412.2873362542018L1088.1948626540216,1375.0224583703039L1113.8672218469371,1335.2949499466401L1138.0141494141428,1293.3335780382135L1160.467239392782,1249.3822053209226L1181.0723260995328,1203.6982709710194L1199.6905424311428,1156.5511786509642L1216.1992640070587,1108.2206021228485L1230.49293270556,1058.9947195768796L1242.483754004554,1009.1683882544816L1252.1022634360663,959.0412713599071L1259.2977583931595,908.9159295883765L1264.0385924831057,859.0958898500021L1266.3123305944653,809.8837039353889L1266.1257638314155,761.5790099499351L1263.5047844594571,714.4766093386056L1258.494121995537,668.8645722312747L1251.156942555798,625.022383661548L1241.5743145387976,583.2191429500939L1229.8445446643534,543.7118281987007L1216.0823893017132,506.7436374161379L1200.4181468990669,472.5424172938484L1182.9966381634695,441.31919007224406L1163.9760814301828,413.26678829058505L1143.526871397792,388.5586064995922L1121.830270085079,367.34747824079216L1099.0770194827905,349.76468576534205L1075.465885923967,335.91910908345267L1051.2021466763078,325.8965200092763L1026.4960296661375,319.75902590168425L1001.561117572816,317.5446668051361L976.6127277827728,319.2671686736006L951.8662798618926,324.9158543211064L927.5356622927517,334.455712692043L903.8316102282557,347.82762598982913L880.9601059359304,364.94875315121794L859.120813447666,385.7130671123505L838.5055586894287,409.99204228877807L819.2968660458563,437.63548769197996L801.666561918172,468.4725201360609L785.7744553628974,502.312671057022L771.7671053571019,538.9471195794022L759.7766836268129,578.1500436272446L749.9199413031399,619.6800800938875L742.2972869403011,663.2818843632901L736.9919826460193,708.6877788193751L734.069464243352,755.619479393443L733.5767905094681,803.7898886873787L735.5422256274503,852.9049437751426L739.9749580480911,902.6655064301531L746.8649579964781,952.7692832538162L756.1829748795357,1002.9127629925677L767.8806748625101,1052.7931582283568L781.8909178914639,1102.1103386115694L798.128172452119,1150.5687428755757L816.4890653797219,1197.879257028181L836.8530630768021,1243.7610463560254L859.0832795624644,1287.943329201796L883.0274058746196,1330.1670808785607L908.5187544817805,1370.1866565681726L935.3774115396081,1407.7713226077858L963.4114890551565,1442.7066861965286L992.4184683040623,1474.796014248901L1022.1866251879267,1503.8614328777426L1052.4965276252126,1529.7449998023953L1083.1225945436822,1552.309642841657L1113.834705589079,1571.4399585600527L1144.3998502868942,1587.042866083898L1174.5838050941727,1599.0481120840282L1204.1528265587658,1607.4086239282183L1232.8753486655212,1612.1007090313938L1260.523672394057,1613.1240994688117L1286.8756355411028,1610.501841959306L1311.7162509720306,1604.2800343654353L1334.8393016603145,1594.527410887934L1356.0488811491894,1581.3347791460797L1375.1608684245798,1564.814313326815L1392.0043266204937,1545.0987085467646L1406.4228154842488,1522.3402024963102L1418.2756081059429,1496.7094713173017L1427.4388030604323,1468.394407499893L1433.8063238165432,1437.5987883636562L1437.2907980322757,1404.540844408531L1437.824310171383,1369.4517374771601L1435.3590217401932,1332.5739592576424L1429.867654348045,1294.1596611705972L1421.3438317340056,1254.4689271233542L1409.8022778702364,1213.7680009740377L1395.278869241787,1172.3274808271972L1377.8305404069288,1130.4204924782712L1357.535042954537,1088.3208544356953L1334.4905589884756,1046.301246975994L1308.8151712764386,1004.6313976287497L1280.6461931953736,963.5762953453371L1250.1393625805606,923.3944453790747L1217.4679045338423,884.3361765962288L1182.8214691619705,846.6420125497533L1146.4049510920984,810.5411171832272L1108.4371984420827,776.2498254945668L1069.1496197026584,743.9702688814491L1028.784697711416,713.8891042174107L987.5944205595563,686.1763549736776L945.8386398672956,660.9843719123921L903.7833673881604,638.4469200372896L861.699021352666,618.6783976039353L819.8586343347223,601.7731920695178L778.5360347171427,587.8051769082936L738.0040140433332,576.8273522395809L698.5324926694861,568.8716312176437L660.3866961741116,563.9487731236363L623.8253549392821,562.0484630859844L589.0989391905598,563.1395373442019L556.4479415712739,567.1703519690591L526.1012190325293,574.0692919661524L498.274405445405,583.7454167270852L473.1684058883768,596.089236859194L450.9679830342799,610.9736165274551L431.8404454604382,628.2547945871235L415.93444703721946,647.7735169784296L403.3789058183394,669.3562721010455L394.28205006601604,692.8166201909771L388.7305982006095,717.95660709088L386.78907857354636,744.5682522407352L388.49929402998,772.435100223338L393.8799352602489,801.3338247811809L402.92634594314836,831.0358738812148L415.61044166619354,861.3091441436062L431.88078357526183,891.9196727718668L451.6628066653079,922.6333350256514L474.859201582282,953.2175352648468L501.35044777102576,983.4428796639886L530.9954947818846,1013.0848188493928L563.6325875469001,1041.9252489461371L599.0802304616485,1069.7540598367098L637.1382841676805,1096.3706198253665L677.5891880295419,1121.5851863693447L720.1993004455289,1145.2202330765056L764.7203483287783,1167.1116837752802L810.8909763501575,1187.110045132335L858.4383858520582,1205.0814300217032L907.0800527271623,1220.908464631009L956.5255130128459,1234.4910731204325L1006.478204483646,1245.7471345223246L1056.6373521347386,1254.6130074779278L1106.6998851409282,1261.0439193459865L1156.3623726506692,1265.0142171796995L1205.3229656345918,1266.5174790467358L1253.2833319539377,1265.5664851550616L1299.9505718464625,1262.1930492382594L1345.0391011459342,1256.4477116409507L1388.2724897551468,1248.3992965209668L1429.3852431803791,1238.1343365432751L1468.124515305362,1225.7563693747293L1504.2517410327553,1211.3851111918493L1537.5441779476077,1195.1555132799754L1567.7963467571503,1177.2167086250263L1594.8213609301004,1157.7308561732011L1618.4521366922195,1136.8718911537721L1638.5424753281316,1114.824190520773L1654.9680105870136,1091.781163166067L1667.6270148859921,1067.943775085179L1676.4410589439694,1043.519020134345L1681.3555204536656,1018.718347399599L1682.3399384044537,993.7560565035295L1679.3882106962096,968.8476724006584L1672.5186337280084,944.208311356374L1661.773783697984,920.0510498664173L1647.2202404049501,896.5853082531589L1628.948155391305,874.0152605718555L1607.070667303253,852.5382822752106L1581.7231683614555,832.3434468193344L1553.062426825962,813.6100820502253L1521.2655712971105,796.5063967898997L1486.528943612354,781.1881875478132L1449.0668279716588,767.797634719985L1409.1100647452452,756.4621970089828L1366.9045581814905,747.2936121071414L1322.7096879345754,740.3870109377169L1276.7966349664393,735.820151949564L1229.4466329410666,733.6527811155831L1180.949156718014,733.9261223998764L1131.6000599621746,736.6625025390686L1081.699674216351,741.8651130362657L1031.5508820291566,749.5179112980602L981.4571768922345,759.5856618626606L931.7207228159655,772.0141176774368L882.6404263621865,786.7303403938084L834.5100338549638,803.6431576634279L787.6162663080377,822.6437544487676L742.2370043404553,843.6063944104201L698.6395350027822,866.3892665091257L657.0788720068504,890.835451069453L617.7961603460219,916.7739987000366L581.0171757129409,944.0211146587624L546.9509284727101,972.381440495407L515.7883812349378,1001.6494241047791L487.70128829369696,1031.6107686848154L462.84116437490263,1062.0439505213849L441.33838925214354,1092.721795018124L423.3014538699882,1123.413099959795L408.8163526551556,1153.8842946437244L397.94612570667925,1183.9011232390383L390.7305535434257,1213.2303405390437L387.1860060577095,1241.6414081603157L387.3054462844549,1268.9081792128904L391.05858855329154,1294.8105595206264L398.39220955338226,1319.1361336081213L409.23060981459014,1341.6817438904468L423.47622210076713,1362.2550118023032L441.0103622284647,1380.6757899826737L461.69411687359434,1396.7775350864183L485.369362016305,1410.408591323149L511.85990480638566,1421.4333754219613L540.9727408140254,1429.733454384615L572.4994178689637,1435.2085081146147L606.2174969904679,1437.7771697908377L641.892100275305,1437.3777376861078L679.2775350459262,1433.9687530081505L718.118983069423,1427.529439256371L758.1542432434285,1418.059999536812L799.11551581012,1405.5817692528067L840.7312159066923,1390.1372225836903L882.7278040909018,1371.7898321715345L924.831621395581,1350.623782449298L966.7707164658433,1326.7435380561817L1008.2766524178043,1300.273269790166L1049.086281226641,1271.3561415369913L1088.9434737041092,1240.1534625821394L1127.6007934586062,1206.8437106513256L1164.8211036430619,1171.6214319286792L1200.3790957834717,1134.6960251644236L1234.062730541145,1096.2904177990088L1265.674580890139,1056.6396427930433L1295.0330688840822,1015.989325556275L1321.9735879381542,974.5940910099691L1346.3495033579293,932.7159013900393L1368.0330247007214,890.6223359000934L1386.9159444517,848.5848237497726L1402.9102384297344,806.876842462103L1415.94852430053,765.7720936008374L1425.984375560164,725.5426682538384L1432.9924893541938,686.4572147090938L1436.9687075087754,648.7791207761555L1437.9298911640565,612.7647231365823L1435.9136504093403,578.6615559534043L1430.9779313172328,546.706650731983L1423.200463753401,517.1248991052154L1412.678074292871,490.1274898160114L1399.5258694965014,465.9104306928757L1383.87629568598,444.6531658626727L1365.8780821965497,426.517297822503L1345.6950758775345,411.64542330370386L1323.5049753467856,400.16009111048993L1299.497974180731,392.1628893081232L1273.875322832806,387.7336682767303L1246.847819615009,386.92990524232823L1218.6342415469935,389.7862149527168L1189.4597262707114,396.3140101887468L1159.554116544295,406.501314797957L1129.1502790636391,420.3127309142776L1098.4824095133256,437.6895609914941L1067.784335818443,458.5500842364338L1037.2878315557111,482.78998598744545L1007.2209513856534,510.2829375518448L977.8064001889069,540.8813229994146L949.2599473295694,574.4171084150498L921.7888971294807,610.7028481485397L895.5906262212511,649.5328216703232L870.8511979582315,690.6842937547535L847.7440634993416,733.918889873471L826.4288585603717,778.9840778960573L807.050304134716,825.6147464693668L789.7372187410157,873.5348697849081L774.6016489575684,922.4592478507235L761.7381241595792,972.0953108637602L751.2230404909619,1022.1449758350219L743.114178183971,1072.3065432550366L737.4503553935019,1122.2766213049595L734.2512207453854,1171.7520649197736L733.5171858159232,1220.43191689698L735.2294977702279,1268.0193382168438L739.3504513965236,1314.2235147997292L745.823738789295,1358.7615280710274L754.5749339629335,1401.360176934804L765.5121087260492,1441.7577390709348L778.5265752215676,1479.7056598660417L793.4937496454037,1514.9701577625738L810.2741308033825,1547.3337353604188L828.7143863576872,1576.5965862270314L848.6485388565384,1602.5778880618998L869.8992429388726,1625.1169736137385L892.2791444647514,1644.0743715597625L915.5923117461568,1659.332710419726L939.6357285462177,1670.797479487745L964.2008380806394,1678.397641715675L989.0751268969105,1682.0860944670117L1014.0437372265483,1681.8399750728613L1038.891096205733,1677.660809154965L1063.402550241034,1669.574500727882L1087.3659927609792,1657.6311641462507L1110.5734736404681,1641.904799016435L1132.822778713973,1622.4928102376407L1153.9189680034585,1599.515376368802L1173.6758615771425,1573.1146705270673L1191.9174623230638,1543.453939004974L1208.4793053649414,1510.716443739403L1223.2097243632518,1475.1042756702827L1235.9710255289415,1436.837046883997L1246.6405608260388,1396.1504702404816L1255.1116925486247,1353.2948359279897L1261.294642221837,1308.5333950710078L1265.1172175908705,1262.1406611297211L1266.5254123203085,1214.4006403701785L1265.4838739228712,1165.6050031485759L1261.9762363653567,1116.051208138674L1256.005314753906,1066.0405919346385L1247.5931604739321,1015.8764366815766L1236.780976145467,965.862028520403L1223.628890745408,916.2987196823098L1208.215596237193,867.4840070299293L1190.6378480291269,819.7096397185888L1171.0098325477923,773.2597684416008L1149.462406156279,728.4091484308713L1126.142210561493,685.4214080093728L1101.2106707344435,644.5473940385757L1074.842882205675,606.023605074095L1047.2263953895006,570.0707224411672L1018.5599053292905,536.8922487712366L989.0518559371917,506.6732628074137L958.9189684199624,479.5792984941795L928.3847041342503,455.75535552142014L897.6776725951884,435.3250475999355L867.0299957688976,418.3898938116481L836.6756401086649,405.02875740863317L806.8487280446764,395.2974354378679L777.7818408056833,389.2284015497537L749.7043245372122,386.8307033151126L722.8406116836388,388.0900143343986L697.4085695212107,392.9688403814732L673.6178875655532,401.40687778950394L651.6685153322476,413.3215212653291L631.7491616035529,428.6085173180462L614.0358659510468,447.1427585142311L598.6906527850506,468.7792128328931L585.8602776509709,493.3539814940562L575.6750748732097,520.6854777822102L568.2479149639502,550.5757185850968L563.6732794709628,582.8117196252081L562.0264601411086,617.1669846805594L563.3628884295847,653.403078477799L567.7176004951873,691.2712723979926L575.1048418947937,730.514251667877L585.5178152325188,770.8678723192845L598.9285730369114,812.0629558901163L615.2880571399951,853.8271096130215L634.5262848218226,895.8865596949818L656.5526809702937,937.9679852323078L681.2565544954728,979.8003403324242L708.5077162373126,1021.1166521249647L738.1572346226178,1061.6557825401123L770.0383243678191,1101.1641420096116L803.967362595703,1139.3973436042024L839.7450258425026,1176.1217865569295L877.1575405835505,1211.1161586327719L915.9780391062791,1244.172847386788L955.9680118148245,1275.0992510021456L996.8788463655314,1303.7189801108866L1038.453443412644,1329.8729427696396L1080.4278981919558,1353.420305583785L1122.5332366919856,1374.2393248417284L1164.4971947598024,1392.228042429372L1206.0460281655878,1407.3048422377076L1246.9063414080426,1419.4088637468603L1286.8069228842733,1428.5002704614715L1325.4805739731755,1434.5603718778723L1362.6659195921811,1437.5915986764062L1398.109187882601,1437.6173318453589L1431.5659468589708,1434.681587449333L1462.8027861209848,1428.8485597476492L1491.598932071742,1420.2020263406034L1517.747785510107,1408.844619966585L1541.058370966096,1394.8969724844897L1561.3566877221274,1378.496737447595L1578.4869531066374,1359.7974985007975L1592.3127293550804,1338.967571607539L1602.7179261024226,1316.188709830238L1609.6076713952477,1291.6547200441541L1612.909044985496,1265.570001554303L1612.5716685852371,1238.1480171049802L1608.5681487169736,1209.6097072174923L1600.8943687800054,1180.181859161385L1589.5696279638667,1150.0954421548083L1574.6366256678389,1119.583920599369L1556.1612911241114,1088.8815572817673L1534.2324589642244,1058.2217185187255L1508.961392506922,1027.835193182224L1480.481157573451,997.9485374198763L1448.945850646489,968.7824566807029L1414.5296861747395,940.5502363718339L1377.4259487796276,913.4562321079949L1337.8458170374088,887.6944300764609L1296.0170663827037,863.4470875278789L1252.1826595024572,840.8834628221855L1206.5992333563934,820.1586438123486L1159.5354926667487,801.4124826419526L1111.270520360642,784.7686442700747L1062.0920160193662,770.3337752243924L1012.2944738855839,758.1967982262569L962.1773123987607,748.4283374358188L912.0429675684913,741.080278137422L862.1949627514938,736.1854637316986L812.9359675705282,733.7575319280432L764.5658587995205,733.7908910459215L717.3797960395616,736.2608363428432L671.6663249242048,741.1238052975663L627.7055204205003,748.3177697962061L585.7671825355251,757.7627622031216L546.1090963987053,769.3615313545165L508.97536826977074,783.0003235972233L474.59484852414016,798.5497831143365L443.17965209453814,815.8659649397136L414.92378620447926,834.7914532701144L390.0018945190569,855.1565769431857L368.56812606732024,876.7807132658754L350.7551364623946,899.4736707568939L336.67322806695415,923.0371408119255L326.40963482801124,947.2662078159024L320.02795654270676,971.9509068159979L317.5677463223635,996.8778175347843L319.04425400220873,1021.8316832476369L324.44832720570446,1046.5970428738942L333.74647072243465,1070.9598645382912L346.88106380408055,1094.7091688491203L363.7707339312009,1117.6386302114784L384.3108845616166,1139.5481446486097L408.3743733459254,1160.2453528393123L435.81233629434723,1179.5471073943474L466.45515240811505,1197.2808737864168L500.1135423547644,1213.286054814603L536.5797938761956,1227.4152290217392L575.6291057773059,1239.5352940881132L617.0210415568181,1249.5285068931457L660.5010830163199,1257.2934126636562L705.802273522874,1262.7456564077213L752.6469400099945,1265.8186706619065L800.7484822842464,1266.4642344505576L849.8132177650841,1264.6528992633619L899.5422694251001,1260.3742787947144L949.6334844206816,1253.6372001494606L999.7833707095751,1244.4697151972935L1049.689038844214,1232.918971745919L1099.0501361082274,1219.0509451940538L1147.5707602284801,1202.950032312479L1194.9613400456283,1184.7185097779497L1240.940470761694,1164.4758610439087L1285.236691701958,1142.3579760668476L1327.5901949279,1118.516229311543L1367.7544535156221,1093.1164423257665L1405.49775886704,1066.3377379992223L1440.6046570444744,1038.3712943971666L1472.8772748100685,1009.4190067801834L1502.1365268038132,979.6920670836589L1528.2231961035006,949.4094707284524L1550.9988812707754,918.7964611639945L1570.3468038938481,888.082923002916L1586.1724715830483,857.5017349890365L1598.404192353978,827.2870943453872L1606.9934373378082,797.6728242734525L1611.9150497823216,768.8906765179495L1613.1672993438324,741.1686409715949L1610.771781711951,714.729274270936L1604.773164649277,689.7880592282161L1595.2387825593632,666.5518067548824L1582.258082711814,645.2171116621593L1565.9419272462155,625.9688733740447L1546.4217560399381,608.9788921607369L1523.8486164523438,594.4045509988637L1498.3920668431856,582.3875925921884L1470.238961600133,573.0530004466707L1439.5921261934946,566.5079921909966L1406.6689315004908,562.8411325732027L1371.6997773016897,562.1215727504908L1334.9264954438515,564.3984216285535L1296.600683683273,569.700254104724L1256.981981667126,578.0347601318186L1216.3363008755323,589.3885375535324L1174.9340206309705,603.7270306739638L1133.0481624825632,620.9946155201903L1090.952555389513,641.1148317448069L1048.9200041598933,663.9907601017055L1007.2204735478705,689.5055434202807L966.1193002745665,717.523048007614L925.87544501677,747.8886614318183L886.7397961046562,780.4302216893392L848.9535362867327,814.9590718414943L812.7465834608633,851.2712333265858L778.3361157365039,889.1486903204916L745.9251905901219,928.3607767357227L715.7014672066128,968.6656567224642L687.8360403693536,1009.81188887001L662.4823934753788,1051.540063707936L639.775477415599,1093.584503577381L619.8309211786185,1135.6750134877977L602.7443791167448,1177.5386711968854L588.5910188607152,1218.9016444532626L577.4251528918886,1259.4910231254178L569.2800157839533,1299.0366538082837L564.1676881176243,1337.2729644505603L562.0791670580745,1373.9407665834512L562.9845825731098,1408.7890228532895L566.8335572672024,1441.5765677667764L573.5557068194855,1472.073769846657L583.0612770492683,1500.0641237656498L595.2419126973673,1525.3457614749946L609.9715521117641,1547.7328718680706L627.1074411682733,1567.057019115955L646.4912589464848,1583.168350475962L667.9503469240735,1595.9366851022744L691.2990327538683,1605.2524761746645L716.3400390520753,1611.0276395013884L742.865967057935,1613.196242640599L770.6608445277946,1611.7150495143987L799.5017268040599,1606.5639164551087L829.1603396544649,1597.7460366178025L859.404752211685,1585.2880307097805L890.001068159419,1569.2398830197367L920.715123209758,1549.6747227698029L951.3141768988799,1526.6884518553434L981.5685867932685,1500.399221073305L1011.2534533467676,1470.946757963094L1040.150223878724,1438.4915503871302L1068.048244452896,1403.2138909551013L1094.746248824592,1365.3127883391674L1120.053774085758,1325.0047524311808L1143.792493171943,1282.5224611507656L1165.7974549972137,1238.113317519185L1185.91822364884,1192.037906362668L1204.0199087983335,1144.5683606954115L1219.984080264107,1095.9866484518443L1233.7095604882695,1046.5827907856376L1245.1130895598133,996.6530236260157L1254.1298583228856,946.4979145765731L1260.7139060455904,896.420447555034L1264.838380085062,846.7240878030589L1266.4956559620648,797.710840040209L1265.6973172459352,749.6793125959236L1262.4739956416838,702.9228003264438L1256.8750726584117,657.7273990105194L1248.9682452151428,614.370163719127L1238.8389584998174,573.1173233717456L1226.5897103329946,534.2225633266562L1212.3392321930257,497.92538740760745L1196.221552928102,464.44957024745315L1178.3849520064082,434.00171023407677L1158.9908099327702,406.7698926790167L1138.2123641837827,382.922472099847L1116.2333796776097,362.60698171742536L1093.2467433956915,345.94917742492123L1069.4529933067408,333.0522225920939L1045.0587922050536,323.9960191319168L1020.2753574622925,318.8366892836183L995.3168580016563,317.6062115631328L970.3987900336977,320.3122133054943L945.7363432420666,326.9379211808948L921.5427691747259,337.4422700140117L898.0277635806665,351.7601691817965L875.3958743340177,369.80292481549895L853.844946407982,391.4588149951337L833.5646151004154,416.59381410619596L814.7348583740466,445.05246153576184L797.5246187588725,476.6588689250726L782.0905047752756,511.21785927474565L768.575581277456,548.5162303230939L757.1082574915267,588.3241337934735L747.8012808355556,630.3965613387807L740.75084386451,674.4749273055102L736.0358108870537,720.2887378004888L733.7170699585638,767.5573349751375L733.8370150716189,815.9917049489407L736.4191624478381,865.2963373780937L741.4679038893555,915.1711243411813L748.9683991813671,965.3132859621321L758.8866085555055,1015.4193100241118L771.1694652342646,1065.1868927472476L785.7451870862159,1114.3168679086587L802.5237254371345,1162.5151115749704L821.3973481102967,1209.4944098948438L842.2413528169831,1254.9762776609227L864.9149060920984,1298.6927156946388L889.2620020763375,1340.3878955316127L915.1125345919502,1379.819760387148L942.2834751492879,1416.7615319562162L970.580148762439,1451.0031132476897L999.7975987488859,1482.352378362798L1029.7220310457142,1510.6363408987459L1060.1323279978578,1535.7021934845775L1090.8016210661717,1557.4182118321314L1121.4989114683935,1575.6745176041738L1151.9907274073769,1590.3836953585L1182.042806261201,1601.4812598142848L1211.4217899102714,1608.925970698456L1239.896921259383,1612.699993458614L1267.241729978774,1612.8089051679822L1293.235695537106,1609.281545989894L1317.6658757319778,1602.169717607444L1340.328489137977,1591.5477310510196L1361.030440187814,1577.5118073656192L1379.5907759766096,1560.1793355441312L1395.842064330202,1539.6879931056355L1409.6316832026203,1516.1947356127148L1420.823012061938,1489.874662292657L1429.296516583804,1460.9197657481707L1434.9507186930969,1429.5375745086687L1437.7030447719185,1395.9496978779225L1437.4905456810595,1360.3902831729806L1434.270483116244,1323.1043960192096L1428.0207777344017,1284.3463348621785L1418.7403154321282,1244.377891276747L1406.4491091322614,1203.4665679935815L1391.1883144283445,1161.883766821451L1373.020098443676,1119.9029588183969L1352.0273622749974,1077.7978491552174L1328.3133184034778,1035.8405491200012L1302.0009254605943,994.2997676326378L1273.232183726869,953.4390344744627L1242.1672957104283,913.5149671912586L1208.9836970930185,874.775593299387L1173.874964237484,837.4587390180772L1137.0496053158072,801.7904952674634L1098.7297429352739,767.9837711164892L1059.1496969060768,736.2369442403428L1018.5544765015035,706.7326172583817L977.1981922067611,679.6364880752533L935.3423975301844,655.0963415454819L893.2543719567668,633.2411689305154L851.2053565549803,614.1804207231119L809.4687541011393,598.0033974833425L768.3183058581694,584.7787823696149L728.0262573354172,574.554318063658L688.8615254626015,567.3566297873608L651.087879631936,563.1911950983231L614.962148998947,562.0424601371813L580.7324682840172,563.8741009900082L548.6365740843707,568.6294278304778L518.9001633916596,576.231928525704L491.73532561549456,586.5859474336346L467.33905894077304,599.5774941949395L445.89188129942545,615.0751764351485L427.55654561939093,632.931249449013L412.4768683288505,652.9827751447787L400.7766793466956,675.0528817867108L392.55890098633313,698.952115394371L387.9047623438813,724.4798730422478L386.8731548401539,751.4259077566771L389.5001336440947,779.5718942328517L395.7985687300875,808.6930441961805L405.75794831950554,838.5597599118064L419.3443364346049,868.9393141060207L436.50048525744205,899.5975444050687L457.14610194491763,930.3005503217914L481.17826851037717,960.8163808284022L508.47201234954235,990.9167006451597L538.8810239708284,1020.3784235483386L572.2385174944518,1048.985301255927L608.3582285177017,1076.529456783785L647.0355430120823,1102.812851576162L688.0487500279655,1127.6486761997053L731.1604101403077,1150.8626549460685L776.1188307799493,1172.2942553104435L822.6596388655096,1191.7977939983582L870.5074404845498,1209.2434318550058L919.377556775502,1224.5180509060601L968.9778246366636,1237.52600753988L1019.0104504399482,1248.1897567430528L1069.173904557393,1256.4503432177232L1119.164844220875,1262.2677561540152L1168.6800520315364,1265.6211453972708L1217.4183773167715,1266.5088977311682L1265.0826675000383,1264.9485729872194L1311.3816767028316,1260.9767006816912L1356.0319389376796,1254.6484388658687L1398.7595934765075,1246.0370978477924L1439.3021502870051,1235.2335323965788L1477.4101838203433,1222.3454069672516L1512.8489439026803,1207.4963393786093L1545.3998730282874,1190.82492923241L1574.8620199694378,1172.4836781734691L1601.053340303819,1152.6378098512478L1623.811875209134,1131.4639981489488L1642.9968006818938,1109.1490128912517L1658.4893401977156,1085.8882928220119L1670.1935347380202,1061.8844561542578L1678.0368650563655,1037.3457594338388L1681.9707220409696,1012.4845158209308L1681.9707220409696,987.5154841790728L1678.036865056366,962.6542405661647L1670.1935347380208,938.1155438457441L1658.4893401977185,914.1117071779964L1642.996800681895,890.8509871087517L1623.8118752091355,868.5360018510546L1601.0533403038205,847.3621901487554L1574.8620199694392,827.5163218265338L1545.3998730282942,809.1750707675963L1512.8489439026832,792.503660621392L1477.4101838203453,777.6545930327508L1439.3021502870072,764.7664676034235L1398.7595934765097,753.9629021522094L1356.031938937682,745.3515611341331L1311.3816767028354,739.0232993183092L1265.0826675000485,735.0514270127826L1217.4183773167742,733.4911022688327L1168.6800520315392,734.3788546027298L1119.1648442208777,737.7322438459853L1069.1739045573956,743.5496567822769L1019.0104504399588,751.8102432569455L968.9778246366662,762.4739924601195L919.3775567755044,775.4819490939391L870.50744048456,790.7565681449903L822.6596388655119,808.2022060016404L776.1188307799587,827.7057446895512L731.1604101403098,849.1373450539298L688.048750027974,872.3513238002884L647.0355430120778,897.1871484238401L608.3582285177032,923.4705432162125L572.2385174944548,951.0146987440706L538.8810239708296,979.6215764516586L508.4720123495476,1009.0832993548319L481.17826851037785,1039.1836191715947L457.146101944918,1069.6994496782054L436.5004852574449,1100.4024555949225L419.34433643460477,1131.060685893976L405.7579483195068,1161.4402400881845L395.798568730087,1191.306955803816L389.50013364409426,1220.4281057671394L386.8731548401529,1248.5740922433195L387.90476234388007,1275.5201269577487L392.5589009863327,1301.047884605627L400.7766793466941,1324.947118213286L412.47686832884585,1347.017224855214L427.5565456193889,1367.068750550984L445.89188129941954,1384.9248235648452L467.33905894076645,1400.4225058050547L491.73532561549194,1413.414052566363L518.9001633916519,1423.7680714742914L548.6365740843679,1431.37057216952L580.7324682840085,1436.1258990099889L614.962148998944,1437.9575398628174L651.0878796319329,1436.8088049016756L688.8615254625984,1432.6433702126396L728.0262573354141,1425.445681936341L768.3183058581596,1415.221217630386L809.4687541011364,1401.9966025166573L851.2053565549703,1385.8195792768904L893.254371956757,1366.7588310694878L935.3423975301815,1344.9036584545186L977.1981922067515,1320.3635119247515L1018.554476501501,1293.2673827416193L1059.149696906068,1263.763055759663L1098.7297429352716,1232.0162288835122L1137.0496053158054,1198.2095047325383L1173.874964237481,1162.541260981926L1208.9836970930166,1125.224406700615L1242.167295710422,1086.48503280875L1273.2321837268678,1046.5609655255396L1302.0009254605893,1005.7002323673715L1328.3133184034734,964.1594508800084L1352.027362274997,922.2021508447856L1373.0200984436733,880.0970411816129L1391.1883144283445,838.116233178552L1406.4491091322602,796.5334320064283L1418.7403154321291,755.622108723256L1428.0207777344026,715.6536651378245L1434.2704831162434,676.8956039807936L1437.490545681061,639.6097168270226L1437.703044771921,604.0503021220865L1434.9507186930987,570.462425491334L1429.2965165838082,539.0802342518375L1420.8230120619428,510.1253377073506L1409.6316832026228,483.80526438728793L1395.842064330208,460.3120068943706L1379.5907759766126,439.820664455871L1361.0304401878211,422.4881926343859L1340.3284891379801,408.45226894898224L1317.665875731981,397.8302823925577L1293.235695537108,390.71845401010637L1267.2417299787776,387.1910948320192L1239.8969212593915,387.300006541387L1211.4217899102748,391.07402930154456L1182.04280626121,398.5187401857145L1151.990727407386,409.6163046414986L1121.498911468397,424.32548239582604L1090.8016210661808,442.5817881678654L1060.132327997861,464.29780651542194L1029.7220310457226,489.3636591012494L999.7975987488888,517.647621637201L970.5801487624418,548.9968867523091L942.2834751492902,583.2384680437808L915.1125345919527,620.1802396128501L889.2620020763441,659.6121044683791L864.9149060921003,701.3072843053592L842.2413528169886,745.0237223390682L821.3973481103016,790.5055901051467L802.5237254371358,837.4848884250272L785.7451870862194,885.6831320913311L771.1694652342654,934.8131072527499L758.8866085555077,984.5806899758776L748.9683991813672,1034.6867140378652L741.4679038893553,1084.8288756588158L736.4191624478385,1134.7036626219024L733.8370150716182,1184.0082950510566L733.7170699585622,1232.4426650248522L736.0358108870524,1279.7112621995086L740.7508438645069,1325.52507269448L747.8012808355519,1369.60343866121L757.1082574915246,1411.6758662065242L768.575581277451,1451.4837696768977L782.0905047752731,1488.7821407252522L797.5246187588665,1523.3411310749202L814.7348583740437,1554.9475384642365L833.5646151004123,1583.4061858938026L853.8449464079803,1608.5411850048645L875.3958743340144,1630.1970751844997L898.0277635806585,1648.2398308181998L921.5427691747224,1662.5577299859879L945.7363432420582,1673.0620788191034L970.3987900336891,1679.6877866945047L995.3168580016527,1682.393788436867L1020.275357462284,1681.1633107163825L1045.05879220505,1676.0039808680835L1069.4529933067324,1666.9477774079082L1093.246743395688,1654.0508225750796L1116.2333796776063,1637.3930182825757L1138.2123641837811,1617.0775279001548L1158.9908099327672,1593.2301073209846L1178.3849520064014,1565.9982897659295L1196.221552928099,1535.5504297525486L1212.3392321930198,1502.0746125924002L1226.5897103329894,1465.777436673352L1238.8389584998154,1426.8826766282568L1248.968245215139,1385.629836280882L1256.87507265841,1342.2726009894832L1262.4739956416813,1297.0771996735662L1265.6973172459343,1250.3206874040789L1266.495655962064,1202.2891599597938L1264.8383800850625,1153.2759121969452L1260.7139060455902,1103.5795524449686L1254.1298583228868,1053.5020854234376L1245.1130895598135,1003.346976373987L1233.709560488272,953.4172092143729L1219.9840802641102,904.013351548166L1204.0199087983347,855.4316393045909L1185.9182236488446,807.9620936373416L1165.7974549972153,761.8866824808172L1143.792493171949,717.477538849243L1120.05377408576,674.9952475688211L1094.7462488245942,634.6872116608342L1068.0482444528982,596.7861090449017L1040.1502238787268,561.5084496128709L1011.2534533467758,529.0532420369119L981.5685867932715,499.60077892669574L951.3141768988885,473.31154814466083L920.7151232097668,450.32527723020064L890.0010681594224,430.76011698026343L859.4047522116939,414.7119692902213L829.1603396544683,402.25396338219696L799.5017268040688,393.4360835448914L770.660844527798,388.28495048560046L742.8659670579384,386.8037573593999L716.3400390520774,388.97236049861135L691.2990327538716,394.74752382533393L667.950346924081,404.0633148977216L646.491258946488,416.83164952403615L627.10744116828,432.9429808840397L609.9715521117703,452.2671281319234L595.2419126973698,474.65423852500317L583.0612770492733,499.93587623434274L573.5557068194878,527.9262301533406L566.8335572672061,558.4234322332152L562.9845825731115,591.2109771467076L562.0791670580761,626.0592334165458L564.1676881176239,662.7270355494366L569.2800157839542,700.9633461917133L577.4251528918884,740.5089768745725L588.5910188607156,781.0983555467344L602.744379116743,822.4613288031047L619.8309211786159,864.3249865121924L639.7754774155986,906.4154964226162L662.4823934753747,948.4599362920544L687.8360403693528,990.1881111299874L715.7014672066074,1031.3343432775266L745.9251905901206,1071.639223264275L778.3361157365023,1110.8513096795061L812.7465834608604,1148.728766673411L848.9535362867307,1185.040928158504L886.7397961046479,1219.569778310654L925.8754450167677,1252.1113385681804L966.1193002745575,1282.4769519923805L1007.220473547861,1310.4944565797146L1048.9200041598906,1336.0092398982938L1090.952555389503,1358.8851682551897L1133.0481624825602,1379.0053844798094L1174.9340206309605,1396.2729693260344L1216.336300875529,1410.611462446468L1256.9819816671231,1421.965239868182L1296.6006836832696,1430.2997458952755L1334.9264954438486,1435.6015783714479L1371.6997773016806,1437.8784272495113L1406.668931500488,1437.158867426799L1439.5921261934861,1433.492007809007L1470.238961600125,1426.9469995533336L1498.3920668431829,1417.612407407814L1523.848616452337,1405.595449001142L1546.4217560399356,1391.0211078392658L1565.94192724621,1374.0311266259619L1582.2580827118122,1354.7828883378438L1595.2387825593614,1333.4481932451208L1604.7731646492764,1310.211940771786L1610.7717817119496,1285.2707257290674L1613.1672993438306,1258.8313590284138L1611.9150497823207,1231.1093234820542L1606.9934373378082,1202.3271757265563L1598.4041923539764,1172.7129056546107L1586.1724715830483,1142.4982650109669L1570.3468038938508,1111.917076997093L1550.9988812707757,1081.2035388360089L1528.223196103505,1050.5905292715563L1502.1365268038141,1020.3079329163443L1472.8772748100696,990.5809932198194L1440.604657044477,961.6287056028357L1405.4977588670413,933.6622620007803L1367.7544535156296,906.8835576742405L1327.5901949279018,881.4837706884593L1285.236691701967,857.6420239331582L1240.940470761689,835.5241389560892L1194.9613400456305,815.2814902220517L1147.57076022849,797.0499676875252L1099.0501361082302,780.9490548059471L1049.6890388442246,767.0810282540835L999.7833707095779,755.5302848027069L949.6334844206843,746.3627998505395L899.5422694251042,739.625721205286L849.8132177650868,735.3471007366377L800.748482284257,733.5357655494413L752.6469400099971,734.1813293380925L705.8022735228841,737.2543435922761L660.5010830163153,742.7065873363438L617.0210415568206,750.4714931068524L575.6291057773092,760.4647059118859L536.5797938761979,772.5847709782585L500.1135423547721,786.7139451853914L466.4551524081169,802.7191262135804L435.81233629434894,820.4528926056497L408.37437334592755,839.754647160686L384.31088456161797,860.4518553513869L363.770733931205,882.3613697885138L346.88106380408146,905.2908311508763L333.74647072243704,929.0401354617004L324.4483272057038,953.402957126107L319.04425400220896,978.1683167523595L317.5677463223634,1003.1221824652137L320.02795654270653,1028.0490931839986L326.4096348280094,1052.7337921840892L336.67322806695347,1076.962859188071L350.7551364623937,1100.5263292431027L368.56812606731853,1123.2192867341228L390.00189451905544,1144.8434230568112L414.92378620447346,1165.2085467298787L443.1796520945363,1184.1340350602836L474.594848524133,1201.4502168856575L508.9753682697745,1216.9996764027771L546.1090963987031,1230.6384686454812L585.7671825355218,1242.2372377968775L627.7055204204979,1251.682230203792L671.6663249241951,1258.8761947024307L717.3797960395589,1263.7391636571556L764.5658587995179,1266.2091089540775L812.9359675705241,1266.2424680719569L862.1949627514911,1263.8145362683008L912.0429675684807,1258.9197218625786L962.1773123987581,1251.5716625641815L1012.2944738855733,1241.8032017737453L1062.0920160193714,1229.6662247756062L1111.2705203606397,1215.2313557299262L1159.535492666742,1198.5875173580503L1206.599233356391,1179.841356187653L1252.1826595024481,1159.11653717782L1296.017066382699,1136.5529124721252L1337.845817037398,1112.3055699235479L1377.4259487796178,1086.5437678920148L1414.529686174738,1059.4497636281687L1448.9458506464844,1031.2175433193022L1480.4811575734484,1002.0514625801295L1508.9613925069173,972.1648068177846L1534.232458964224,941.7782814812778L1556.161291124111,911.118442718236L1574.636625667837,880.4160794006367L1589.5696279638669,849.9045578451951L1600.8943687800047,819.8181408386238L1608.5681487169747,790.3902927825143L1612.571668585239,761.8519828950316L1612.9090449854984,734.4299984457086L1609.6076713952493,708.345279955849L1602.7179261024244,683.811290169767L1592.3127293550838,661.0324283924671L1578.4869531066424,640.2025014992096L1561.3566877221297,621.5032625524078L1541.0583709660984,605.1030275155131L1517.7477855101115,591.1553800334182L1491.5989320717445,579.7979736593988L1462.802786120993,571.1514402523549L1431.5659468589765,565.3184125506705L1398.109187882613,562.382668154645L1362.6659195921934,562.4084013235966L1325.4805739731785,565.439628122129L1286.8069228842799,571.4997295385283L1246.906341408049,580.5911362531405L1206.0460281655978,592.695157762291L1164.4971947598053,607.7719575706282L1122.5332366919886,625.7606751582716L1080.4278981919624,646.5796944162124L1038.4534434126467,670.1270572303597L996.8788463655409,696.2810198891084L955.9680118148299,724.9007489978516L915.9780391062905,755.8271526132038L877.1575405835613,788.883841367219L839.7450258425044,823.8782134430687L803.967362595708,860.6026563957919L770.0383243678226,898.8358579903835L738.1572346226237,938.3442174598789L708.5077162373136,978.8833478750328L681.2565544954733,1020.1996596675732L656.5526809702967,1062.0320147676855L634.5262848218229,1104.1134403050155L615.2880571399974,1146.1728903869684L598.9285730369113,1187.9370441098774L585.5178152325196,1229.1321276807023L575.1048418947935,1269.4857483321098L567.7176004951862,1308.7287276020043L563.362888429584,1346.5969215221949L562.0264601411059,1382.8330153194345L563.6732794709596,1417.1882803747833L568.2479149639481,1449.4242814149004L575.6750748732074,1479.3145222177873L585.8602776509679,1506.646018505939L598.6906527850481,1531.2207871671044L614.0358659510405,1552.857241485763L631.7491616035472,1571.3914826819496L651.6685153322375,1586.6784787346646L673.6178875655426,1598.5931222104907L697.4085695212073,1607.0311596185252L722.8406116836335,1611.9099856656003L749.7043245372055,1613.1692966848857L777.7818408056744,1610.7715984502456L806.8487280446727,1604.7025645621316L836.6756401086614,1594.9712425913665L867.0299957688919,1581.6101061883537L897.677672595185,1564.6749524000647L928.3847041342415,1544.2446444785835L958.9189684199562,1520.4207015058223L989.0518559371803,1493.3267371925929L1018.5599053292797,1463.107751228771L1047.2263953894978,1429.9292775588342L1074.8428822056703,1393.97639492591L1101.210670734439,1355.4526059614284L1126.1422105614865,1314.5785919906357L1149.462406156277,1271.5908515691308L1171.0098325477907,1226.7402315584013L1190.637848029124,1180.290360281418L1208.215596237192,1132.515992970073L1223.628890745405,1083.7012803177006L1236.780976145466,1034.1379714796028L1247.5931604739299,984.1235633184373L1256.005314753905,933.9594080653754L1261.976236365357,883.9487918613288L1265.4838739228715,834.3949968514314L1266.52541232031,785.5993596298274L1265.1172175908723,737.8593388702889L1261.2946422218383,691.4666049289948L1255.1116925486265,646.7051640720128L1246.6405608260413,603.8495297595248L1235.9710255289435,563.1629531160054L1223.209724363257,524.8957243297255L1208.4793053649462,489.28355626060136L1191.9174623230704,456.54606099503303L1173.6758615771494,426.8853294729388L1153.9189680034617,400.4846236311995L1132.8227787139779,377.5071897623625L1110.5734736404747,358.09520098356745L1087.3659927609874,342.36883585375233L1063.4025502410345,330.4254992721178L1038.8910962057334,322.3391908450351L1014.0437372265536,318.16002492713915L989.0751268969142,317.9139055329882L964.2008380806479,321.6023582843237L939.6357285462245,329.20252051225384L915.592311746165,340.66728958027113L892.2791444647594,355.9256284402337L869.8992429388759,374.8830263862603L848.6485388565429,397.42211193809646L828.7143863576929,423.4034137729649L810.274130803389,452.6662646395745L793.493749645404,485.0298422374266L778.5265752215679,520.2943401339587L765.512108726052,558.2422609290593L754.5749339629356,598.6398230651937L745.8237387892985,641.2384719289631L739.3504513965263,685.7764852002651L735.22949777023,731.980661783146L733.5171858159247,779.5680831030095L734.251220745386,828.2479350802236L737.4503553935017,877.7233786950333L743.114178183971,927.6934567449573L751.2230404909603,977.8550241649675L761.7381241595795,1027.9046891362404L774.6016489575686,1077.540752149277L789.7372187410131,1126.4651302150849L807.0503041347147,1174.385253530631L826.4288585603667,1221.0159221039332L847.7440634993379,1266.0811101265242L870.8511979582253,1309.3157062452378L895.5906262212443,1350.467178329669L921.7888971294781,1389.2971518514587L949.2599473295645,1425.5828915849454L977.8064001889011,1459.1186770005825L1007.2209513856451,1489.71706244815L1037.287831555711,1517.210014012555L1067.7843358184427,1541.4499157635667L1098.4824095133197,1562.3104390085036L1129.1502790636357,1579.6872690857226L1159.554116544286,1593.4986852020415L1189.4597262707048,1603.6859898112539L1218.6342415469846,1610.2137850472836L1246.8478196150004,1613.070094757673L1273.8753228328026,1612.266331723271L1299.497974180726,1607.8371106918785L1323.5049753467792,1599.839908889513L1345.695075877527,1588.3545766963007L1365.8780821965493,1573.4827021774972L1383.8762956859798,1555.3468341373273L1399.5258694964978,1534.0895693071284L1412.6780742928686,1509.8725101839912L1423.2004637533964,1482.8751008947922L1430.977931317229,1453.2933492680227L1435.9136504093374,1421.3384440466043L1437.929891164054,1387.2352768634266L1436.968707508774,1351.2208792238475L1432.9924893541934,1313.5427852909124L1425.9843755601628,1274.457331746168L1415.9485243005306,1234.2279063991725L1402.910238429734,1193.1231575378968L1386.9159444516993,1151.4151762502272L1368.033024700724,1109.3776640999133L1346.3495033579297,1067.2840986099636L1321.9735879381587,1025.4059089900404L1295.033068884085,984.0106744437304L1265.6745808901449,943.3603572069658L1234.0627305411513,903.7095822009996L1200.3790957834735,865.3039748355784L1164.8211036430673,828.3785680713261L1127.600793458611,793.156289348678L1088.9434737041179,759.8465374178671L1049.0862812266405,728.6438584630081L1008.2766524178039,699.7267302098335L966.7707164658498,673.2564619438215L924.8316213955839,649.3762175507024L882.7278040909116,628.2101678284685L840.7312159066986,609.8627774163097L799.11551581013,594.4182307471947L758.1542432434383,581.9400004631887L718.1189830694261,572.470560743628L679.2775350459326,566.0312469918492L641.8921002753111,562.6222623138897L606.2174969904769,562.2228302091598L572.4994178689637,564.7914918853849L540.9727408140254,570.2665456153845L511.85990480639055,578.5666245780361L485.3693620163076,589.5914086768486L461.6941168736007,603.2224649135758L441.01036222846915,619.3242100173209L423.4762221007685,637.7449881976952L409.23060981458946,658.3182561095541L398.3922095533868,680.8638663918696L391.05858855329313,705.1894404793684L387.30544628445693,731.0918207871028L387.1860060577094,758.358591839682L390.7305535434259,786.7696594609561L397.9461257066798,816.098876760955L408.81635265515433,846.1157053562698L423.30145386998834,876.5869000402016L441.33838925214184,907.2782049818733L462.8411643749032,937.956049478615L487.7012882936922,968.3892313151761L515.7883812349382,998.3505758952174L546.9509284727089,1027.6185595045902L581.0171757129322,1055.9788853412274L617.7961603460224,1083.2260012999634L657.0788720068423,1109.1645489305404L698.6395350027777,1133.6107334908702L742.237004340456,1156.39360558958L787.6162663080254,1177.356245551226L834.5100338549673,1196.3568423365737L882.6404263621764,1213.269659606188L931.7207228159598,1227.9858823225616L981.4571768922304,1240.4143381373385L1031.5508820291618,1250.482088701941L1081.6996742163417,1258.1348869637343L1131.6000599621673,1263.3374974609312L1180.949156718008,1266.073877600125L1229.4466329410625,1266.347218884417L1276.7966349664398,1264.1798480504362L1322.70968793457,1259.6129890622858L1366.9045581814842,1252.706387892861L1409.1100647452427,1243.5378029910194L1449.0668279716554,1232.202365280016L1486.5289436123544,1218.811812452187L1521.2655712971036,1203.493603210107L1553.0624268259585,1186.3899179497807L1581.7231683614536,1167.656553180668L1607.0706673032462,1147.4617177247997L1628.9481553913051,1125.9847394281448L1647.2202404049465,1103.414691746849L1661.7737836979825,1079.9489501335902L1672.5186337280077,1055.7916886436287L1679.3882106962083,1031.1523275993527L1682.3399384044537,1006.2439434964675L1681.3555204536665,981.2816526004096L1676.4410589439703,956.4809798656617L1667.627014885993,932.0562249148239L1654.9680105870134,908.2188368339341L1638.5424753281354,885.1758094792356L1618.4521366922227,863.1281088462326L1594.8213609301038,842.2691438268048L1567.796346757153,822.7832913749753L1537.5441779476068,804.8444867200258L1504.2517410327623,788.614888808157L1468.124515305368,774.2436306252732L1429.3852431803814,761.8656634567269L1388.2724897551504,751.6007034790339L1345.0391011459337,743.5522883590496L1299.950571846472,737.8069507617438L1253.2833319539427,734.4335148449409L1205.3229656345952,733.4825209532645L1156.362372650683,734.9857828203012L1106.6998851409276,738.9560806540137L1056.6373521347493,745.3869925220712L1006.4782044836511,754.2528654776748L956.5255130128493,765.5089268795666L907.0800527271765,779.0915353689866L858.4383858520547,794.918569978298L810.8909763501672,812.8899548676604L764.7203483287832,832.8883162247164L720.1993004455318,854.7797669234925L677.5891880295405,878.4148136306554L637.1382841676875,903.6293801746265L599.0802304616535,930.2459401632855L563.6325875469033,958.0747510538574L530.9954947818871,986.9151811506047L501.35044777102456,1016.557120336011L474.85920158228566,1046.7824647351442L451.6628066653112,1077.3666649743434L431.88078357526194,1108.0803272281298L415.61044166619604,1138.6908558563782L402.9263459431479,1168.964126118785L393.87993526024843,1198.6661752188097L388.49929402997805,1227.5648997766548L386.7890785735458,1255.431747759262L388.7305982006061,1282.0433929091084L394.2820500660158,1307.1833798090227L403.3789058183355,1330.6437278989467L415.93444703721536,1352.226483021564L431.8404454604366,1371.7452054128744L450.9679830342717,1389.026383472537L473.16840588836965,1403.9107631407987L498.2744054453977,1416.2545832729097L526.101219032524,1425.9307080338435L556.4479415712711,1432.8296480309398L589.0989391905598,1436.8604626557967L623.825354939273,1437.9515369140126L660.3866961741054,1436.051226876363L698.5324926694799,1431.1283687823548L738.00401404333,1423.1726477604197L778.536034717143,1412.194823091705L819.8586343347126,1398.2268079304831L861.699021352659,1381.3216023960674L903.7833673881574,1361.5530799627106L945.8386398672797,1339.015628087614L987.5944205595566,1313.823645026322L1028.7846977114073,1286.110895782594L1069.1496197026536,1256.0297311185534L1108.43719844208,1223.7501745054353L1146.404951092088,1189.4588828167823L1182.821469161971,1153.3579874502464L1217.4679045338355,1115.6638234037796L1250.139362580558,1076.60555462093L1280.6461931953718,1036.423704654666L1308.8151712764318,995.368602371263L1334.4905589884727,953.6987530240149L1357.5350429545335,911.6791455643145L1377.830540406928,869.579507521735L1395.2788692417867,827.6725191728059L1409.8022778702377,786.231999025962L1421.343831734006,745.5310728766555L1429.867654348045,705.8403388294093L1435.3590217401952,667.4260407423637L1437.824310171383,630.5482625228428L1437.2907980322768,595.459155591469L1433.8063238165473,562.4012116363522L1427.4388030604339,531.6055925001119L1418.2756081059456,503.29052868270094L1406.4228154842585,477.6597975037015L1392.004326620494,454.90129145323556L1375.1608684245873,435.18568667319096L1356.048881149196,418.6652208539243L1334.839301660317,405.47258911206734L1311.7162509720415,395.71996563456935L1286.8756355411033,389.4981580406944L1260.5236723940657,386.8759005311899L1232.8753486655285,387.8992909686084L1204.1528265587688,392.5913760717816L1174.5838050941845,400.95188791597036L1144.3998502869042,412.9571339161017L1113.8347055890881,428.5600414399448L1083.1225945436886,447.6903571583417L1052.4965276252153,470.2550001976034L1022.186625187927,496.1385671222588L992.4184683040709,525.203985751094L963.4114890551615,557.2933138034668L935.3774115396134,592.2286773922108L908.5187544817827,629.8133434318243L883.0274058746197,669.8329191214408L859.0832795624704,712.0566707981961L836.8530630768056,756.2389536439674L816.4890653797233,802.1207429718168L798.1281724521257,849.4312571244084L781.8909178914639,897.8896613884313L767.8806748625125,947.2068417716335L756.1829748795363,997.0872370074272L746.8649579964786,1047.2307167461804L739.9749580480916,1097.3344935698328L735.5422256274501,1147.0950562248581L733.5767905094672,1196.210111312611L734.0694642433496,1244.3805206065517L736.9919826460184,1291.3122211806217L742.2972869402972,1336.7181156366964L749.9199413031349,1380.3199199061044L759.7766836268084,1421.8499563727466L771.7671053570976,1461.0528804205928L785.7744553628954,1497.6873289429757L801.666561918171,1531.5274798639398L819.2968660458489,1562.3645123080141L838.5055586894242,1590.0079577112178L859.1208134476628,1614.2869328876482L880.9601059359286,1635.0512468487805L903.8316102282546,1652.172374010171L927.5356622927426,1665.5442873079546L951.8662798618882,1675.0841456788924L976.6127277827692,1680.7328313263993L1001.5611175728042,1682.4553331948641L1026.496029666137,1680.2409740983157L1051.2021466762985,1674.1034799907252L1075.4658859239596,1664.0808909165487L1099.0770194827878,1650.2353142346592L1121.8302700850684,1632.6525217592134L1143.5268713977946,1611.4413935004059L1163.9760814301758,1586.7332117094206L1182.996638163463,1558.6808099277596L1200.4181468990648,1527.457582706154L1216.0823893017061,1493.2563625838727L1229.8445446643473,1456.2881718013068L1241.5743145387942,1416.7808570499135L1251.1569425557946,1374.9776163384572L1258.4941219955358,1331.1354277687306L1263.5047844594565,1285.5233906613935L1266.125763831413,1238.4209900500762L1266.3123305944646,1190.1162960646222L1264.038592483105,1140.9041101500022L1259.2977583931602,1091.0840704116276L1252.1022634360663,1040.9587286400938L1242.4837540045557,990.8316117455283L1230.4929327055627,941.00528042313L1216.1992640070607,891.7793978771579L1199.690542431149,843.4488213490501L1181.0723260995326,796.3017290289799L1160.4672393927883,750.6177946790879L1138.0141494141467,706.6664219617902L1113.8672218469403,664.7050500533635L1088.1948626540334,624.9775416297091L1061.1785528834503,587.7126637457965L1033.0115846102274,553.122671493546L1003.897706754446,521.4020036199573L974.0496901665654,492.7260985245356L943.6878219557863,467.2503382346076L913.0383395542693,445.1091270879241L882.3318154540211,426.4151109374842L851.8015039212027,411.25854174108963L821.6816612829,399.7067914144036L792.205851590707,391.80401781713454L763.6052495929529,387.57098471519066L736.1069529919592,387.00503652346504L709.9323159240671,390.0802275919465L685.2953154778022,396.74760475885L662.400962861617,406.93564086553795L641.4437705468013,420.5508159163363L622.6062863466112,437.4783415784849L606.0577049512798,457.5830237602661L591.9525669229997,480.71025708550155L580.4295545697103,506.6871442057838L571.6103934644666,535.3237320642853L565.5988676629988,566.4143564529305L562.4799559016749,599.7390854913265L562.3190952347761,635.0652520089868L565.1615777013401,672.149064233301L571.0320847026254,710.7372836800572L579.9343628278681,750.5689587148613L591.8510438954327,791.3772019026711L606.7436109846803,832.89099899533L624.5525112281723,874.8370372209959L645.1974151209379,916.9415404385943L668.5776210905028,958.932098704885L694.5726030649508,1000.5394798702981L723.0426977838979,1041.4994109734857L753.8299276250859,1081.554317441018L786.7589537748408,1120.4550084170016L821.6381536594731,1157.962296944468L858.2608156843291,1193.848544194596L896.4064435024029,1227.8991174862701L935.8421612618433,1259.9137524546659L976.3242105664838,1289.7078104085467L1017.5995292300804,1317.113422656741L1059.4074013191866,1341.9805143806939L1101.481167463895,1364.1777014750892L1143.549983974874,1383.593054667707L1185.3406189427883,1400.1347261563299L1226.5792732122495,1413.7314349575286L1266.9934139232141,1424.3328081444577L1306.3136081953512,1431.909576149835L1344.2753444990144,1436.4536213206336L1380.620829310269,1437.9778799247606L1415.1007467841532,1436.5160988206553L1447.4759694033837,1432.1224490011673L1477.5192078632817,1424.8709992063582L1505.0165888390766,1414.8550537594774L1529.769149744408,1402.1863597094664L1551.5942401281818,1386.9941892555494L1570.3268199658655,1369.4243042791575L1585.820645778209,1349.6378106089694L1597.9493362497287,1327.8099103915888L1606.607309816423,1304.1285616278014L1611.7105875421,1278.7930545575286L1613.1974554987946,1252.0125151322438L1611.028981804037,1224.0043462967117L1605.189384438946,1194.992618210241L1595.6862469703383,1165.2064188680665L1582.5505803200767,1134.8781768333897L1565.8367297590798,1104.2419679593079L1545.6221273446195,1073.531818065691L1522.0068910605878,1042.9800135376684L1495.1132729547303,1012.8154317325798L1465.084959586443,983.2619029176565L1432.0862290977984,954.5366152164399L1396.3009701914566,926.848573717465L1357.931569235136,900.397124496352L1317.1976726086223,875.3705538272566L1274.3348322570089,851.9447723114645L1229.5930432102873,830.2820930372037L1183.2351825664039,810.5301122072019L1135.5353601095874,792.8206999354451L1086.7771913415506,777.2691081261297L1037.252004237774,763.9732015124312L987.2569914994649,753.0128170554159L937.0933204511774,744.4492559908435L887.0642130325627,738.3249118700479L837.4730085466147,734.6630369768764L788.6212219565796,733.467648522884L740.8066105668602,734.7235750341961L694.3212618800394,738.3966423526053L649.4497152933964,744.4339976875663L606.4671300832096,752.764569181533L565.6375118272845,763.2996574954591L527.2120090358353,775.9336549905455L491.42729130060644,790.5448871838366L458.50401973725354,806.9965702937127L428.64541988626513,825.1378778746955L402.03596656120715,844.8051087731635L378.84018939161285,865.8229479226893L359.2016070071263,888.0058108454589L343.2417969561917,911.1592621368669L331.0596075499575,935.0814976911839L322.7305168788388,959.5648799777085L318.3061432697456,984.3975153042686L317.8139104441159,1009.3648617097413L321.25686960674807,1034.2513559124384L328.6136796504246,1058.8420476068816L339.83874560815457,1082.9242293502414L354.8625144309128,1106.289050310521L373.59192612090624,1128.7331022618544L395.91101721605935,1150.059966407594L421.68167260716064,1170.081709886635L450.74452068211383,1188.6203211723464L482.91996583864,1205.509074002718L518.0093514935904,1220.5938099826565L555.7962458508374,1233.7341305712698L596.0478418751659,1244.8044898040214L638.5164621629456,1253.6951797977142L682.9411587073092,1260.3132018410327L729.0493969283133,1264.5830166780493L776.5588127852034,1266.4471684432228L825.1790313081635,1265.866777596109L874.613534486587,1262.8218991272656L924.5615661325835,1257.311743256967L974.7200611015875,1249.3547568183924L1024.785586102646,1238.9885645007016L1074.4562792653433,1226.2697701176282L1123.43377565269,1211.2736190570854L1171.425106016693,1194.0935240501449L1218.1445562871606,1174.8404573662663L1263.3154755612,1153.6422134896527L1306.6720207204187,1130.6425472520223L1347.960826242043,1106.0001932836235L1386.9425882854011,1079.887773491077L1423.3935527243466,1052.4906000709207L1457.1068974534846,1024.0053823170445L1487.894000018301,994.6388461722229L1515.5855824011187,964.606276104459L1540.0327256303726,934.1299894534183L1561.1077477654621,903.437753886162L1578.704939735882,872.761159022285L1592.7411544764357,842.3339536327787L1603.1562457929383,812.3903600812073L1609.913354407815,783.163377860874L1612.9990396665235,754.8830881822371L1612.423256425499,727.7749715839599L1608.2191776844052,702.0582504761842L1600.4428645618354,677.9442683760852L1589.1727862381058,655.6349173669139L1574.5091934935758,635.3211250002444L1556.5733504499924,617.1814114728187L1535.5066300685157,601.3805274442326L1511.469479865336,588.0681823242242L1484.6402651674566,577.3778722512659L1455.2139980423517,569.425816312726L1423.4009607893763,564.3100088242827L1389.4252335736094,562.1093946987545L1353.5231364095557,562.8831740966377L1315.941596257913,566.6702416683597L1276.936450481016,573.4887647779672L1236.7706983070689,583.3359041451995L1195.7127122779868,596.1876793650906L1154.034421898587,611.9989807672696L1112.009481863379,630.7037280685718L1069.9114373119583,652.2151752587531L1028.011898553402,676.4263601473956L986.5787376038356,703.2106959975354L945.8743187029128,732.4227016842922L906.1537747114015,763.898865853069L867.6633409496486,797.4586396167547L830.6387576150071,832.9055514323779L795.3037514187564,870.0284369411756L761.8686065151627,908.602775746333L730.5288341574893,948.3921263482117L701.4639498163092,989.1496497598046L674.8363657361878,1030.6197116929377L650.7904060950541,1072.539552640815L629.4514510705409,1114.6410146906132L610.9252152163835,1156.6523134826557L595.2971646150934,1198.2998433946632L582.6320763072265,1239.3100037724394L572.9737425096744,1279.4110338536311L566.3448211317632,1318.3348439414804L562.7468330859413,1355.8188303796487L562.1603058763174,1391.6076619591236L564.545061940008,1425.4550255524637L569.8406492205331,1457.1253190182174L577.9669104758265,1486.3952797485615L588.824686872804,1513.0555376424916L602.2966505018844,1536.9120817736193L618.2482595657509,1557.7876305828336L636.5288291611719,1575.5228960560316L656.9727097888554,1589.977733044748L679.4005649974222,1601.0321656450387L703.6207388995174,1608.5872833642456L729.4307036961667,1612.5660006704866L756.6185768113322,1612.9136744289779L784.9646967793153,1609.5985746782137L814.2432466429261,1602.6122051795278L844.2239133151273,1591.969471180018L874.6735711318058,1577.7086928541135L905.3579776810298,1559.8914639261363L936.0434699340648,1538.6023560181252L966.4986487274547,1513.9484703070098L996.4960397521993,1486.058839105439L1025.8137193950097,1455.0836809948835L1054.2368940469783,1421.1935141302233L1081.5594218434958,1384.5781332960505L1107.5852662248797,1345.4454572192867L1132.1298712058529,1304.0202535240107L1155.0214488105153,1260.542749547431L1176.1021697642207,1215.267138013546L1195.229249229413,1168.459987279679L1212.2759201248682,1120.3985665245739L1227.1322873717731,1071.3690968302833L1239.706057258737,1021.6649396221534L1249.923137007308,971.5847343641452L1257.7281005415398,921.430497761888L1263.0845174146657,871.5056969979169L1265.9751428157388,822.113309710817L1266.4019675623404,773.5538835338072L1264.386127975769,726.1236080232916L1259.9676765250092,680.1124117388958L1253.2052151088742,635.8020970799217L1244.1753938148536,593.4645252427929L1232.9722789416255,553.3598633393337L1219.7065949936903,515.7349053107896L1204.5048462441225,480.8214777884808L1187.5083243094637,448.8349414928331L1168.872008983078,419.9727981322835L1148.7633703240485,394.4134120653988L1127.361080693525,372.3148552295834L1104.8536460633768,353.81388302189214L1081.4379664896535,339.0250479478078L1057.3178361412888,328.039956938367L1032.7023936990433,320.92667728027664L1007.8045342885391,317.72929511497955L982.83929438174,318.4676294468934L958.022221290388,323.1371035655309L933.5677389842139,331.70877473792973L909.6875219915578,344.12952197359493L886.588889083804,360.32239061141274L864.4732283061486,380.1870914334992L843.5344646963184,403.6006509823676L823.9575817339352,430.41820875096937L805.9172071847156,460.4739559384791L789.5762735517314,493.5822095230199L775.0847628212945,529.5386145037212L762.5785445985334,568.1214663133666L752.1783160707378,609.0931446064549L743.9886515205988,652.2016488897657L738.0971683403511,697.1822257895384L734.5738156779385,743.7590771453132L733.4702909827372,791.6471375888511L734.8195888172299,840.5539098122858L738.6356853688937,890.1813453540251L744.9133611393631,940.2277584378954L753.6281633129222,990.389760191998L764.7365083198288,1040.3642004494995L778.1759241191828,1089.850104296548L793.8654307375891,1138.550590580698L811.706056620717,1186.174759727951L831.5814873922177,1232.439538436931L853.3588426740363,1277.0714691207206L876.889575712036,1319.8084323527507L902.010489675851,1360.4012910355898L928.5448636689755,1398.6154455505098L956.3036807005341,1434.2322897568836L985.0869491375769,1467.050558387815L1014.6851084841348,1496.8875571307235L1044.8805097224106,1523.5802674800316L1075.4489599089284,1546.9863193012557L1106.1613202465596,1566.984824943744L1136.7851464567461,1583.4770696783921L1167.0863599562124,1596.3870542093662L1196.8309381029171,1605.6618860092387L1225.7866116175205,1611.2720172480617L1253.7245572107572,1613.211328121476L1280.4210734550393,1611.497055424425L1305.6592280290079,1606.1695672579976L1329.2304646377033,1597.291985790351L1350.9361581661626,1584.9496610117105L1370.5891069594165,1569.2494994210424L1388.0149515351088,1550.3191525513118L1403.0535095227376,1528.3060711749733L1415.5600171830667,1503.3764319251723L1425.4062684893345,1475.713943914168L1432.48164344235,1445.5185437250398L1436.6940180423971,1413.004987887609L1437.9705491444527,1378.401352622513L1436.258328275565,1341.9474512424595L1431.5248993882797,1303.8931801323513L1423.7586364548893,1264.4968046892486L1412.9689777687383,1224.0231969820104L1399.1865148033414,1182.7420371905262L1382.462934481253,1140.9259911006193L1362.8708147158104,1098.8488760637215L1340.5032741025752,1056.7838278777297L1315.4734776469704,1015.0014810086768L1287.9140014132377,973.7681744507186L1257.9760599601268,933.3441953162408L1225.828601384786,893.9820719604489L1191.657275720053,855.9249280760084L1155.6632833175768,819.4049087489288L1118.0621106910617,784.6416889459641L1079.082162087037,751.841074313878L1038.9632957880863,721.1937035137412L997.9552748300673,692.8738605940133L956.3161424270342,667.0384051304952L914.3105329400012,643.8258270335295L872.2079296941143,623.355432049143L830.2808813424303,605.7266630682151L788.8031887864718,591.018561410571L748.0480748960758,579.2893712778966L708.2863494188513,570.5762895754361L669.7845815333694,564.895362295722L632.8032924792232,562.2415276441673L597.5951805904688,562.5888050737522L564.4033908689371,565.8906283910394L533.4598409599014,572.0803201050967L504.9836150379272,581.071703221713L479.1794366762532,592.7598457441088L456.23623126325447,607.0219322342888L436.3257879462607,623.7182559231599L419.60153043114985,642.6933240377315L406.1974052498733,663.7770682460741L396.2268953314657,686.7861514110275L389.7821658820776,711.5253611949317L386.9333486993618,737.789080477183L387.72797012446813,765.3628240350859L392.1905268754439,794.0248305018522L400.32221301637003,823.5476982559915L412.1008003035545,853.7000536156759L427.4806731203796,884.2482395121791L446.3930181730658,914.9580127004352L468.74616807747395,945.5962375300496L494.42609692971223,975.9325643509233L523.2970649270518,1005.7410807595868L555.2024080983006,1034.801924107166L589.9654682204725,1062.9028439848405L627.3906570483996,1089.8407037754803L667.2646480725518,1115.4229108091833L709.3576881531119,1139.4687651810536L753.4250205625203,1161.8107178794753L799.2084102083277,1182.2955295271036L846.4377611101403,1200.7853217511688L894.8328155718231,1217.1585139683973L944.1049239284939,1231.3106391885278L993.9588732607614,1243.1550333026698L1044.094763058602,1252.6233932226746L1094.2099154893658,1259.6662001694253L1144.0008076770566,1264.2530053641046L1193.165013239891,1266.3725763515172L1241.4031402567618,1266.0329031706242L1288.4207528438933,1263.2610645783484L1333.930263620418,1258.1029555213L1377.6527845237267,1250.6228780293904L1419.319923702575,1240.902998668911L1458.675516566399,1229.0426766330552L1495.4772794983708,1215.1576674597884L1529.4983752486191,1199.3792082425105L1560.5288796050072,1181.8529910334353L1588.3771395913332,1162.738031926431L1612.8710141604936,1142.2054440397635L1633.8589891289012,1120.4371232953627L1651.2111589332283,1097.6243565039886L1664.820068674887,1073.966361812114L1674.6014108466857,1049.6687720415698L1680.4945721025556,1024.9420718544657L1682.4630264294012,1000.000000000002" stroke-width="3" stroke="#e6e6e6" fill="none" data-v-2675be80=""></path></svg>